PathFileType	4	(X/Y/Z)	output.trc
DataRate	CameraRate	NumFrames	NumMarkers	Units	OrigDataRate	OrigDataStartFrame	OrigNumFrames
120	120	19	18	mm	120	424	1
Frame#	Time	K4ABT_JOINT_PELVISx			K4ABT_JOINT_SPINE_NAVEL			T8			C7			K4ABT_JOINT_CLAVICLE_LEFT			K4ABT_JOINT_SHOULDER_LEFT			K4ABT_JOINT_ELBOW_LEFT			K4ABT_JOINT_WRIST_LEFT			K4ABT_JOINT_HAND_LEFT			K4ABT_JOINT_HANDTIP_LEFT			K4ABT_JOINT_THUMB_LEFT			K4ABT_JOINT_CLAVICLE_RIGHT			GH			Elbow_Midpoint			Wrist_Midpointx			K4ABT_JOINT_HAND_RIGHT			K4ABT_JOINT_HANDTIP_RIGHT			K4ABT_JOINT_THUMB_RIGHTx
		X1	Y1	Z1	X2	Y2	Z2	X3	Y3	Z3	X4	Y4	Z4	X5	Y5	Z5	X6	Y6	Z6	X7	Y7	Z7	X8	Y8	Z8	X9	Y9	Z9	X10	Y10	Z10	X11	Y11	Z11	X12	Y12	Z12	X13	Y13	Z13	X14	Y14	Z14	X15	Y15	Z15	X16	Y16	Z16	X17	Y17	Z17	X18	Y18	Z18
424	12.745649	-252.960281	-251.952828	1563.295412	279.992719	-102.908734	1515.893245	302.296569	16.158999	1478.339406	300.555380	200.696891	1421.353247	296.551735	179.180217	1459.066206	256.442017	171.119614	1579.420454	192.323739	-17.557695	1723.056174	46.390392	15.259791	1580.975832	-6.100201	-44.716202	1551.045963	-66.313668	-119.396338	1548.505680	22.681027	-113.048436	1573.680297	306.956422	161.370088	1402.869819	310.630985	91.245257	1309.286632	275.387896	-155.241248	1336.372292	127.770894	-8.236554	1322.628870	126.506141	83.373578	1330.974945	106.260632	175.594055	1331.363383	137.157705	97.464304	1297.078935
425	12.753948	-252.005942	-251.967610	1562.374949	279.430057	-102.883053	1514.978729	302.609909	16.147626	1477.602237	300.890051	200.997078	1421.209400	296.770829	179.332327	1458.856943	256.048213	170.416507	1579.024913	194.117898	-19.569481	1722.153296	47.844468	12.500073	1580.051411	-6.352197	-45.995122	1550.231458	-67.359542	-120.117657	1548.690341	21.911164	-115.538264	1573.613351	307.399200	161.715806	1402.602573	311.086806	91.294737	1309.145387	274.531161	-155.193961	1335.918403	126.270457	-8.575973	1323.549059	126.254914	83.098814	1331.605423	106.099829	175.393323	1331.351834	137.245575	97.110351	1297.165136
426	12.762246	-251.051603	-251.982392	1561.454486	278.867395	-102.857372	1514.064212	302.923249	16.136252	1476.865069	301.224723	201.297265	1421.065554	296.989923	179.484438	1458.647680	255.654409	169.713400	1578.629371	195.912056	-21.581268	1721.250418	49.298544	9.740355	1579.126989	-6.604194	-47.274042	1549.416953	-68.405417	-120.838976	1548.875003	21.141301	-118.028092	1573.546405	307.841978	162.061524	1402.335328	311.542627	91.344217	1309.004141	273.674426	-155.146674	1335.464514	124.770019	-8.915392	1324.469249	126.003688	82.824050	1332.235901	105.939025	175.192590	1331.340286	137.333446	96.756398	1297.251336
427	12.770545	-250.143978	-252.038259	1560.547514	278.314580	-102.852838	1513.199888	303.234800	16.117385	1476.208526	301.522629	201.580786	1420.967415	297.181823	179.626340	1458.489307	255.273477	169.022900	1578.299454	197.573600	-23.552918	1720.377595	50.675455	7.017730	1578.176181	-6.905971	-48.541997	1548.626589	-69.452263	-121.585729	1549.060412	20.375541	-120.481017	1573.499725	308.250051	162.387472	1402.119792	311.955156	91.399623	1308.894279	272.883963	-155.109233	1335.070288	123.262875	-9.330992	1325.533210	125.677681	82.484905	1332.852423	105.809726	174.949034	1331.308897	137.413855	96.339936	1297.353201
428	12.778844	-249.385500	-252.225307	1559.683615	277.793205	-102.915824	1512.495823	303.540639	16.074592	1475.809411	301.703147	201.811094	1421.015213	297.286902	179.735653	1458.493418	254.933644	168.372651	1578.179069	198.811723	-25.396420	1719.600736	51.805993	4.413537	1577.141125	-7.366691	-49.774943	1547.913307	-70.502213	-122.413693	1549.248210	19.622881	-122.816114	1573.517746	308.547318	162.650301	1402.069359	312.229464	91.473948	1308.884618	272.305099	-155.103226	1334.866555	121.734314	-9.989825	1327.056212	125.112915	81.940201	1333.424387	105.781015	174.568750	1331.214157	137.470444	95.723893	1297.505083
429	12.787143	-248.627021	-252.412354	1558.819717	277.271830	-102.978810	1511.791757	303.846477	16.031799	1475.410295	301.883664	202.041402	1421.063011	297.391980	179.844965	1458.497529	254.593812	167.722403	1578.058684	200.049847	-27.239922	1718.823876	52.936530	1.809344	1576.106069	-7.827411	-51.007889	1547.200026	-71.552164	-123.241656	1549.436007	18.870220	-125.151212	1573.535767	308.844584	162.913130	1402.018927	312.503771	91.548274	1308.874957	271.726235	-155.097219	1334.662823	120.205754	-10.648658	1328.579214	124.548148	81.395496	1333.996351	105.752304	174.188466	1331.119417	137.527032	95.107851	1297.656964
430	12.795442	-247.868543	-252.599401	1557.955818	276.750455	-103.041796	1511.087691	304.152316	15.989005	1475.011179	302.064182	202.271711	1421.110809	297.497059	179.954277	1458.501640	254.253980	167.072154	1577.938299	201.287970	-29.083425	1718.047016	54.067067	-0.794849	1575.071013	-8.288131	-52.240835	1546.486744	-72.602114	-124.069619	1549.623804	18.117559	-127.486309	1573.553789	309.141851	163.175959	1401.968494	312.778078	91.622599	1308.865296	271.147371	-155.091212	1334.459091	118.677194	-11.307491	1330.102216	123.983382	80.850791	1334.568314	105.723593	173.808182	1331.024678	137.583621	94.491808	1297.808845
431	12.803741	-247.241985	-252.764279	1557.222240	276.324112	-103.092585	1510.499795	304.441669	15.960339	1474.693086	302.244626	202.480876	1421.170592	297.618132	180.060231	1458.526223	254.003897	166.491783	1577.858525	202.429318	-30.747815	1717.337249	55.058363	-3.248403	1574.168914	-8.745089	-53.406272	1545.871868	-73.580685	-124.873298	1549.795142	17.408464	-129.668210	1573.584220	309.417697	163.411202	1401.943247	312.995635	91.677735	1308.884433	270.712272	-155.106451	1334.385272	117.304579	-12.018024	1331.609028	123.383879	80.246025	1335.094261	105.697913	173.364898	1330.946154	137.633764	93.823208	1297.969492
432	12.812040	-247.078234	-252.851383	1556.945860	276.231164	-103.100579	1510.319451	304.673187	15.981236	1474.659236	302.424815	202.615870	1421.272425	297.795319	180.154406	1458.622625	254.068677	166.156561	1577.921224	203.231152	-31.783838	1716.862860	55.561164	-5.173480	1573.733260	-9.188853	-54.334868	1545.602222	-74.308842	-125.591780	1549.908734	16.852206	-131.312659	1573.658187	309.618395	163.549663	1402.006355	313.014097	91.665547	1309.004602	270.781539	-155.196224	1334.767220	116.479058	-12.909934	1333.059039	122.662512	79.430547	1335.458768	105.682871	172.700596	1330.924518	137.661294	92.970220	1298.160893
433	12.820339	-246.914483	-252.938487	1556.669480	276.138216	-103.108574	1510.139107	304.904705	16.002133	1474.625386	302.605003	202.750863	1421.374257	297.972506	180.248581	1458.719027	254.133458	165.821339	1577.983922	204.032986	-32.819860	1716.388471	56.063966	-7.098557	1573.297605	-9.632616	-55.263465	1545.332577	-75.036999	-126.310263	1550.022326	16.295949	-132.957107	1573.732154	309.819093	163.688125	1402.069462	313.032560	91.653359	1309.124771	270.850806	-155.285997	1335.149167	115.653537	-13.801843	1334.509050	121.941144	78.615068	1335.823275	105.667829	172.036295	1330.902882	137.688825	92.117233	1298.352293
434	12.828637	-246.750731	-253.025591	1556.393100	276.045268	-103.116569	1509.958764	305.136223	16.023030	1474.591536	302.785191	202.885857	1421.476089	298.149693	180.342756	1458.815429	254.198238	165.486117	1578.046621	204.834820	-33.855882	1715.914081	56.566767	-9.023635	1572.861951	-10.076380	-56.192061	1545.062932	-75.765156	-127.028745	1550.135918	15.739692	-134.601556	1573.806121	310.019791	163.826586	1402.132570	313.051022	91.641171	1309.244940	270.920073	-155.375770	1335.531114	114.828016	-14.693753	1335.959062	121.219777	77.799590	1336.187781	105.652786	171.371993	1330.881246	137.716356	91.264245	1298.543694
435	12.836936	-246.642144	-253.090638	1556.183563	275.992248	-103.114623	1509.830681	305.343320	16.050575	1474.584036	302.955806	203.005678	1421.572068	298.322904	180.431006	1458.908908	254.292416	165.196984	1578.114020	205.566173	-34.761008	1715.490640	56.985514	-10.794070	1572.516632	-10.489598	-57.060536	1544.857758	-76.424708	-127.711418	1550.240500	15.230946	-136.106677	1573.881842	310.200416	163.947642	1402.197067	313.047455	91.622652	1309.366938	271.034046	-155.465373	1335.926416	114.109977	-15.550212	1337.295028	120.527620	77.009426	1336.514342	105.629017	170.719833	1330.875887	137.734903	90.443342	1298.727336
436	12.845235	-246.743729	-253.071650	1556.228698	276.091353	-103.074800	1509.901712	305.457371	16.103451	1474.676926	303.089946	203.067696	1421.645744	298.480966	180.496681	1458.991251	254.498595	165.083452	1578.199324	206.028991	-35.167421	1715.261310	57.084013	-11.975326	1572.515487	-10.786438	-57.699948	1544.898219	-76.822879	-128.257653	1550.310757	14.903217	-137.080965	1573.964244	310.304562	164.002380	1402.266859	312.959956	91.580010	1309.495910	271.318349	-155.554329	1336.372599	113.801442	-16.271605	1338.196488	119.946753	76.315709	1336.696326	105.571996	170.113933	1330.932542	137.719221	89.744682	1298.881418
437	12.853534	-246.845314	-253.052661	1556.273833	276.190457	-103.034978	1509.972742	305.571422	16.156326	1474.769815	303.224086	203.129713	1421.719419	298.639028	180.562357	1459.073595	254.704775	164.969920	1578.284628	206.491809	-35.573834	1715.031979	57.182512	-13.156581	1572.514342	-11.083278	-58.339361	1544.938681	-77.221049	-128.803888	1550.381015	14.575487	-138.055252	1574.046646	310.408708	164.057118	1402.336651	312.872458	91.537368	1309.624882	271.602651	-155.643284	1336.818783	113.492908	-16.992998	1339.097947	119.365887	75.621992	1336.878310	105.514975	169.508032	1330.989197	137.703539	89.046021	1299.035500
438	12.861833	-246.946900	-253.033673	1556.318968	276.289562	-102.995156	1510.043773	305.685473	16.209201	1474.862705	303.358226	203.191731	1421.793095	298.797090	180.628033	1459.155938	254.910955	164.856388	1578.369933	206.954627	-35.980246	1714.802649	57.281011	-14.337836	1572.513197	-11.380118	-58.978773	1544.979142	-77.619220	-129.350124	1550.451272	14.247758	-139.029540	1574.129049	310.512854	164.111856	1402.406443	312.784959	91.494727	1309.753854	271.886953	-155.732240	1337.264966	113.184373	-17.714392	1339.999407	118.785020	74.928274	1337.060295	105.457954	168.902131	1331.045852	137.687857	88.347361	1299.189582
439	12.870132	-247.046329	-253.010217	1556.372412	276.383705	-102.956549	1510.117565	305.779060	16.258090	1474.950672	303.473721	203.243105	1421.857313	298.934874	180.684779	1459.228287	255.098813	164.764386	1578.445811	207.352855	-36.313748	1714.608709	57.347690	-15.365675	1572.535746	-11.638191	-59.548811	1545.035673	-77.959430	-129.841873	1550.515544	13.966348	-139.877108	1574.205164	310.599314	164.156454	1402.468890	312.701380	91.455901	1309.869201	272.146809	-155.810011	1337.658298	112.929378	-18.350315	1340.772377	118.271104	74.314248	1337.214951	105.400366	168.362734	1331.103472	137.668244	87.731263	1299.326111
440	12.878431	-247.136485	-252.967553	1556.461580	276.456512	-102.923169	1510.203232	305.784653	16.289835	1475.017474	303.509044	203.248715	1421.880866	298.985467	180.703129	1459.257658	255.207889	164.764956	1578.481161	207.473354	-36.333745	1714.566945	57.277547	-15.733846	1572.660174	-11.729572	-59.820547	1545.161298	-78.050417	-130.099343	1550.554083	13.884102	-140.179806	1574.254246	310.609729	164.157453	1402.499757	312.634656	91.433484	1309.925966	272.301552	-155.839690	1337.824380	112.904592	-18.618728	1340.992864	118.045069	74.042881	1337.252099	105.340336	168.109296	1331.165241	137.631729	87.470172	1299.387162
441	12.886730	-247.226641	-252.924889	1556.550748	276.529320	-102.889788	1510.288898	305.790246	16.321580	1475.084276	303.544367	203.254326	1421.904418	299.036060	180.721479	1459.287029	255.316966	164.765526	1578.516510	207.593853	-36.353742	1714.525180	57.207404	-16.102016	1572.784603	-11.820952	-60.092283	1545.286923	-78.141404	-130.356813	1550.592621	13.801856	-140.482503	1574.303328	310.620143	164.158451	1402.530624	312.567931	91.411067	1309.982730	272.456296	-155.869369	1337.990462	112.879806	-18.887141	1341.213351	117.819034	73.771513	1337.289247	105.280305	167.855858	1331.227009	137.595215	87.209081	1299.448213
442	12.895029	-247.316797	-252.882225	1556.639916	276.602128	-102.856407	1510.374565	305.795839	16.353326	1475.151078	303.579690	203.259936	1421.927970	299.086653	180.739829	1459.316400	255.426042	164.766096	1578.551860	207.714351	-36.373739	1714.483416	57.137261	-16.470187	1572.909032	-11.912333	-60.364020	1545.412549	-78.232391	-130.614283	1550.631160	13.719611	-140.785201	1574.352410	310.630558	164.159449	1402.561491	312.501207	91.388650	1310.039495	272.611039	-155.899049	1338.156543	112.855020	-19.155555	1341.433838	117.592999	73.500146	1337.326395	105.220275	167.602420	1331.288777	137.558700	86.947991	1299.509265
